<?xml version="1.0" encoding="UTF-8" standalone="no"?>
<svg
   width="573"
   height="150"
   version="1.1"
   id="svg1"
   sodipodi:docname="logo.svg"
   inkscape:version="1.4.2 (f4327f4, 2025-05-13)"
   xmlns:inkscape="http://www.inkscape.org/namespaces/inkscape"
   xmlns:sodipodi="http://sodipodi.sourceforge.net/DTD/sodipodi-0.dtd"
   xmlns="http://www.w3.org/2000/svg"
   xmlns:svg="http://www.w3.org/2000/svg">
  <defs
     id="defs1" />
  <sodipodi:namedview
     id="namedview1"
     pagecolor="#ffffff"
     bordercolor="#000000"
     borderopacity="0.25"
     inkscape:showpageshadow="2"
     inkscape:pageopacity="0.0"
     inkscape:pagecheckerboard="0"
     inkscape:deskcolor="#d1d1d1"
     showguides="true"
     inkscape:zoom="1.061082"
     inkscape:cx="386.86924"
     inkscape:cy="40.995888"
     inkscape:window-width="1920"
     inkscape:window-height="1009"
     inkscape:window-x="1352"
     inkscape:window-y="-8"
     inkscape:window-maximized="1"
     inkscape:current-layer="svg1" />
  <path
     fill="currentColor"
     d="M 0.56710876,0.01511726 2.424106e-8,149.77646 153.73295,149.20934 174.72157,127.08467 H 20.419635 L 22.120961,23.272155 157.70085,23.839264 c 22.27307,0.612818 35.11239,16.669804 36.30612,39.143524 l 0.6006,86.059222 165.10214,0.60244 25.6007,-26.55116 -168.95191,0.58873 0.14685,-67.707211 C 215.53661,24.354464 193.0712,0.00676491 158.28261,0.06085634 Z M 572.75494,0.07768324 542.56802,0.08326032 460.82327,84.631467 385.93507,-0.01662086 215.9605,0.20663271 238.19811,26.726872 375.27912,25.378825 450.865,112.38908 l 17.22574,0.0337 81.13085,-83.284341 -1.13419,120.688191 24.65928,-0.002 z M 238.2805,61.132024 v 28.946031 h 113.04547 l 18.06822,-28.873518 z"
     id="path1"
     sodipodi:nodetypes="ccccccccccccccccccccccccccccccccc" />
</svg>
